<?xml version="1.0" encoding="UTF-8"?><svg xmlns="http://www.w3.org/2000/svg" viewBox="0 0 141.34 200"><defs><style>.c,.d{fill:#fff;}.e{fill:#c2c1c1;}.d{font-family:Arial-Black, Arial Black;font-size:34px;}</style></defs><g id="a"><g transform="matrix(1, 0, 0, 1, 0, 0)"><g><path class="e" d="M141.32,100c0,32.97,0,65.95,.02,98.92,0,.88-.2,1.08-1.08,1.08-46.39-.02-92.79-.02-139.18,0C.2,200,0,199.8,0,198.92,.02,132.97,.02,67.03,0,1.08,0,.2,.2,0,1.08,0c46.39,.02,92.79,.02,139.18,0,.88,0,1.08,.2,1.08,1.08-.03,32.97-.02,65.95-.02,98.92Z"/><path class="c" d="M2.38,100c0-31.95,0-63.9,0-95.85,0-1.95-.19-1.77,1.77-1.77,44.35,0,88.7,0,133.05,0,1.95,0,1.77-.18,1.77,1.77,0,63.9,0,127.8,0,191.7,0,1.95,.18,1.77-1.77,1.77-44.35,0-88.7,0-133.05,0-1.95,0-1.77,.18-1.77-1.77,0-31.95,0-63.9,0-95.85Z"/><path class="e" d="M70.67,70.68c-19.78,0-39.56,0-59.34,0q-1.66,0-1.66-1.65c0-16.21,0-32.42,0-48.63q0-1.53,1.54-1.53c39.64,0,79.27,0,118.91,0q1.54,0,1.54,1.53c0,16.25,0,32.5,0,48.75q0,1.53-1.54,1.53c-19.82,0-39.64,0-59.46,0Z"/><path class="e" d="M66.67,89.28c18.37,0,36.73,0,55.1,0q1.65,0,1.65,1.65c0,3.06-.05,6.12,.03,9.18,.03,1.15-.33,1.43-1.45,1.43-27.86-.03-55.72-.02-83.59-.02-9.1,0-18.21-.02-27.31,.02-1.13,0-1.47-.31-1.44-1.44,.07-3.14,.08-6.28,0-9.42-.03-1.15,.33-1.44,1.45-1.43,18.52,.03,37.04,.02,55.57,.02Z"/><path class="e" d="M56.3,142.28c15.03,0,30.06,0,45.09,0q1.54,0,1.54,1.53c0,3.18-.03,6.36,.02,9.54,.01,.93-.27,1.2-1.2,1.2-30.29-.02-60.59-.02-90.88,0-.91,0-1.23-.25-1.21-1.19,.05-3.26,.08-6.52,0-9.77-.03-1.19,.46-1.32,1.45-1.32,15.07,.02,30.14,.02,45.21,.02Z"/><path class="e" d="M44.18,115.66c11.07,0,22.14,0,33.2,0q1.52,0,1.53,1.55c0,3.22-.03,6.44,.02,9.66,.01,.97-.33,1.3-1.3,1.29-22.33-.02-44.66-.02-67,0-.91,0-1.23-.24-1.21-1.19,.05-3.34,.06-6.67,0-10.01-.02-1.04,.29-1.33,1.32-1.32,11.15,.04,22.29,.02,33.44,.02Z"/><path class="e" d="M44.53,168.65c11.03,0,22.06,0,33.09,0q1.53,0,1.53,1.54c0,3.18-.04,6.36,.02,9.54,.02,1.08-.32,1.42-1.41,1.42-22.29-.03-44.59-.02-66.88,0-.9,0-1.23-.23-1.22-1.18,.05-3.34,.06-6.67,0-10.01-.02-1.03,.27-1.33,1.32-1.33,11.19,.04,22.37,.02,33.56,.02Z"/><path class="c" d="M83.56,46.52c.51-1.9,1-3.71,1.48-5.52,.8-3.03,1.61-6.06,2.37-9.1,.2-.78,.55-1.07,1.37-1.05,2.08,.06,4.16,.05,6.24,0,.94-.02,1.35,.28,1.34,1.28-.02,8.05-.02,16.09,0,24.14,0,.93-.38,1.26-1.27,1.23-1.14-.04-2.28-.07-3.41,0-.96,.06-1.2-.32-1.19-1.22,.02-4.67,0-9.34-.02-14.01,0-.22-.02-.45-.19-.7-.79,3.22-1.59,6.43-2.38,9.65-.43,1.75-.89,3.49-1.28,5.25-.16,.71-.44,1.07-1.25,1.03-1.25-.07-2.51-.05-3.77,0-.77,.03-1.1-.25-1.28-1.01-1.05-4.42-2.16-8.83-3.25-13.24-.08-.33-.18-.67-.27-1h-.4c0,1.68,0,3.36,0,5.04,0,3.02-.05,6.04-.01,9.07,0,.87-.26,1.2-1.14,1.15-1.06-.06-2.12-.07-3.18,0-1.09,.07-1.44-.37-1.43-1.43,.04-5.42,.02-10.83,.02-16.25,0-2.55,.03-5.1-.01-7.65-.01-.96,.33-1.34,1.31-1.31,2.08,.05,4.16,.05,6.24,0,.85-.02,1.15,.32,1.34,1.08,1.18,4.55,2.42,9.09,3.62,13.63,.08,.3,.12,.61,.43,.95Z"/><path class="c" d="M20.98,44.18c0-3.96,.03-7.93-.02-11.89-.01-1.07,.35-1.5,1.43-1.44,1.09,.07,2.2,.07,3.29,0,1.06-.06,1.47,.32,1.45,1.41-.06,2.51,.02,5.02-.04,7.53-.02,.91,.25,1.24,1.19,1.22,2.27-.06,4.55-.06,6.82,0,.96,.03,1.2-.31,1.19-1.22-.05-2.47-.02-4.94-.02-7.41,0-1.43,.08-1.51,1.56-1.51,1.06,0,2.12,.05,3.18-.02,1.09-.07,1.44,.37,1.43,1.43-.04,5.85-.02,11.69-.02,17.54,0,2.12-.03,4.24,.01,6.36,.02,.96-.32,1.36-1.3,1.32-1.17-.05-2.36-.06-3.53,0-1.05,.05-1.36-.42-1.34-1.41,.04-2.9-.01-5.81,.03-8.71,.01-.9-.22-1.25-1.18-1.22-2.31,.07-4.63,.05-6.94,0-.83-.02-1.09,.27-1.08,1.09,.04,2.94-.02,5.89,.03,8.83,.02,1.09-.37,1.48-1.44,1.42-1.13-.07-2.28-.05-3.41,0-.97,.04-1.32-.35-1.31-1.31,.03-4,.01-8,.01-12.01Z"/><path class="c" d="M59.81,46.73c0,3.1-.02,6.2,.01,9.3,.01,1.04-.37,1.52-1.45,1.47-1.14-.05-2.28-.06-3.41,0-1.2,.06-1.45-.56-1.44-1.6,.02-6.04,.01-12.09,.01-18.13q0-1.72-1.72-1.72c-1.49,0-2.98-.03-4.47,0-1.02,.03-1.42-.42-1.38-1.42,.04-.82,.04-1.65,0-2.47-.05-1.07,.53-1.32,1.47-1.32,5.14,.02,10.28,0,15.42,0,1.1,0,2.2,.01,3.3,0,.83-.01,1.24,.35,1.23,1.2-.01,.86-.03,1.73,0,2.59,.05,1-.36,1.44-1.38,1.41-1.69-.04-3.38,.03-5.06-.03-.89-.03-1.15,.29-1.14,1.15,.04,3.18,.02,6.36,.02,9.53Z"/><path class="c" d="M101.71,44.15c0-3.88,0-7.77,0-11.65,0-1.56,.06-1.61,1.56-1.62,.9,0,1.8,0,2.71,0,1.84,0,1.89,.04,1.89,1.95,0,5.96,0,11.93,0,17.89q0,1.59,1.6,1.59c3.22,0,6.43,0,9.65,0,1.45,0,1.5,.06,1.51,1.55,0,.78-.04,1.57,0,2.35,.06,.98-.36,1.3-1.32,1.3-4.31-.03-8.63-.01-12.95-.01-1.06,0-2.12-.06-3.18,.02-1.12,.08-1.52-.33-1.51-1.47,.05-3.96,.02-7.92,.02-11.89Z"/></g></g><rect class="e" x="18.15" y="25.52" width="105.38" height="37.44"/></g><g id="b"><text class="d" transform="translate(32.04 57.33)"><tspan x="0" y="0">TXT</tspan></text></g></svg>